<svg xmlns="http://www.w3.org/2000/svg" viewBox="0 0 500 600"><defs><linearGradient id="bg" x2="1" y2="1"><stop stop-color="#e8dfcc"/><stop offset="1" stop-color="#d6c8ae"/></linearGradient><radialGradient id="satin" cx=".3" cy=".2" r=".9"><stop stop-color="#957756"/><stop offset=".25" stop-color="#574130"/><stop offset=".5" stop-color="#8b6b4b"/><stop offset=".72" stop-color="#4e3629"/><stop offset="1" stop-color="#2c201a"/></radialGradient><filter id="shadow"><feGaussianBlur stdDeviation="13"/></filter></defs><rect width="500" height="600" fill="url(#bg)"/><path d="M0 150 500 440v70L0 220Z" fill="#f9f5e8" opacity=".25"/><ellipse cx="248" cy="453" rx="169" ry="21" fill="#56402c" opacity=".17" filter="url(#shadow)"/><path d="M113 397C58 251 118 149 249 146s189 111 137 251c-25 51-59 65-139 65s-113-25-134-65Z" fill="url(#satin)"/><path d="M249 162c-22 61-19 119-9 186M165 175c-32 59-22 145-9 174M326 177c44 44 48 115 19 183M113 271c25-21 65-28 100-14M379 277c-18-22-55-31-79-17" fill="none" stroke="#c3a783" stroke-width="4" opacity=".23"/><path d="M115 374c54 44 212 42 273-1l-18 66c-46 33-174 38-241-4Z" fill="#3b2a20"/><path d="M126 391c60 31 187 32 249-1" fill="none" stroke="#bc9460" stroke-width="2" opacity=".65"/><text x="250" y="535" text-anchor="middle" fill="#7b684a" font-family="sans-serif" font-size="9" letter-spacing="5">SATIN · DOUCEUR</text></svg>
