<svg xmlns="http://www.w3.org/2000/svg" viewBox="0 0 512 512"><rect width="512" height="512" rx="86" fill="#F6ECE4"/><circle cx="256" cy="240" r="159" fill="none" stroke="#943B66" stroke-width="2"/><path d="M278 110c-57-19-111 38-111 109 0 54 20 84 58 111l-48 67h159l-34-108c27-15 48-34 48-71 0-63-34-128-72-108Z" fill="none" stroke="#943B66" stroke-width="5"/><path d="M214 147c74 14 102 75 67 151M189 181c83 20 111 75 69 130M183 227c48 7 77 34 62 83M248 128c69 34 90 96 62 144" fill="none" stroke="#943B66" stroke-width="4"/><circle cx="309" cy="254" r="13" fill="#943B66"/><text x="256" y="450" text-anchor="middle" fill="#943B66" font-family="Georgia,serif" font-size="25" letter-spacing="7">F A B</text></svg>
